<?xml version="1.0" encoding="iso-8859-1"?>
<!-- Generator: Adobe Illustrator 19.0.0, SVG Export Plug-In . SVG Version: 6.00 Build 0)  -->
<svg version="1.1" id="Capa_1" xmlns="http://www.w3.org/2000/svg" xmlns:xlink="http://www.w3.org/1999/xlink" x="0px" y="0px"
	 viewBox="0 0 512 512" style="enable-background:new 0 0 512 512;" xml:space="preserve">
<circle style="fill:#590F38;" cx="256" cy="256" r="256"/>
<path style="fill:#350622;" d="M512,256c0-12.625-0.93-25.033-2.695-37.168L381.034,90.561l-22.199,38.541l-40.469-40.469
	l-7.524,187.775l-63.499-63.499l-20.074,41.497l-41.499-43.425l-17.662,138.854l-57.018,53.02l106.238,106.238
	C229.941,511.005,242.854,512,256,512C397.385,512,512,397.385,512,256z"/>
<path style="fill:#39B54A;" d="M310.366,161.234l28.511-0.007c23.277-0.006,42.145-18.874,42.15-42.152l0.006-28.515l-28.511,0.007
	c-23.277,0.006-42.145,18.874-42.15,42.152L310.366,161.234z"/>
<path style="fill:#009245;" d="M310.366,160.3v0.934l28.511-0.007c23.277-0.005,42.145-18.874,42.15-42.151l0.006-28.515
	L310.366,160.3z"/>
<rect x="302.37" y="88.63" style="fill:#8C6239;" width="16" height="154.52"/>
<rect x="308.33" y="88.63" style="fill:#754C24;" width="10.03" height="154.52"/>
<path style="fill:#39B54A;" d="M176.676,283.582l28.511-0.007c23.277-0.006,42.145-18.874,42.15-42.152l0.006-28.515l-28.511,0.007
	c-23.277,0.006-42.145,18.874-42.15,42.152L176.676,283.582z"/>
<path style="fill:#009245;" d="M177.084,283.582l28.103-0.007c23.277-0.006,42.145-18.875,42.15-42.151l0.006-28.515
	L177.084,283.582z"/>
<rect x="169.77" y="210.98" style="fill:#8C6239;" width="16" height="154.52"/>
<rect x="180.33" y="210.98" style="fill:#754C24;" width="5.438" height="154.52"/>
<path style="fill:#F1333F;" d="M254.711,290.649c-10.533-15.542-30.171-22.27-48.057-16.562c-8.767,2.798-18.107,4.31-27.803,4.31
	c-9.702,0-19.047-1.514-27.819-4.315c-17.675-5.644-37.2,0.785-47.708,16.077c-10.147,14.766-16.074,32.656-16.036,51.937
	c0.099,50.363,42.9,92.277,93.254,91.364c49.788-0.902,89.87-41.544,89.87-91.547C270.413,322.914,264.621,305.273,254.711,290.649z
	"/>
<path style="fill:#AE283F;" d="M254.711,290.648c-10.533-15.542-30.171-22.27-48.057-16.562c-8.318,2.654-17.156,4.135-26.32,4.282
	v155.093c0.07-0.001,0.139,0,0.209-0.001c49.788-0.902,89.87-41.543,89.87-91.547C270.413,322.914,264.621,305.273,254.711,290.648z
	"/>
<path style="fill:#FFDC00;" d="M377.262,273.775c-14.322-14.55-22.164-34.268-22.164-54.685v-32.093
	c0-24.705-20.027-44.733-44.733-44.733l0,0c-24.705,0-44.733,20.027-44.733,44.733v32.089c0,20.332-7.689,40.06-21.99,54.513
	c-16.487,16.663-26.777,39.469-27.129,64.677c-0.721,51.584,40.931,94.472,92.515,95.19c52.451,0.73,95.198-41.569,95.198-93.852
	C404.227,313.964,393.938,290.717,377.262,273.775z"/>
<path style="fill:#FFC000;" d="M377.262,273.775c-14.322-14.55-22.163-34.269-22.163-54.685v-32.093
	c0-24.706-20.027-44.733-44.733-44.733c-0.682,0-1.358,0.021-2.033,0.051v291.132c0.232,0.005,0.463,0.015,0.696,0.019
	c52.451,0.73,95.198-41.569,95.198-93.852C404.227,313.964,393.938,290.717,377.262,273.775z"/>
<g>
</g>
<g>
</g>
<g>
</g>
<g>
</g>
<g>
</g>
<g>
</g>
<g>
</g>
<g>
</g>
<g>
</g>
<g>
</g>
<g>
</g>
<g>
</g>
<g>
</g>
<g>
</g>
<g>
</g>
</svg>
